<svg width="28" height="28" viewBox="0 0 28 28" fill="none" xmlns="http://www.w3.org/2000/svg">
<path d="M1.92001 3.23282C1.5381 3.23282 1.17183 3.37998 0.901777 3.64194C0.631725 3.90389 0.480011 4.25918 0.480011 4.62964C0.480011 5.00011 0.631725 5.35539 0.901777 5.61735C1.17183 5.8793 1.5381 6.02647 1.92001 6.02647H3.67681L4.11601 7.73339C4.12037 7.75304 4.12517 7.7726 4.13041 7.79206L6.08593 15.3768L4.80001 16.6228C2.98561 18.3828 4.27009 21.3916 6.83617 21.3916H19.2C19.5819 21.3916 19.9482 21.2444 20.2182 20.9824C20.4883 20.7205 20.64 20.3652 20.64 19.9947C20.64 19.6243 20.4883 19.269 20.2182 19.007C19.9482 18.7451 19.5819 18.5979 19.2 18.5979H6.83617L8.27617 17.2011H17.76C18.0274 17.2009 18.2894 17.1286 18.5168 16.9922C18.7441 16.8557 18.9279 16.6606 19.0474 16.4286L23.3674 8.04768C23.477 7.83477 23.5288 7.59821 23.5178 7.36045C23.5067 7.12268 23.4333 6.89159 23.3043 6.68912C23.1753 6.48664 22.9952 6.31948 22.7809 6.20351C22.5666 6.08754 22.3254 6.0266 22.08 6.02647H6.64321L6.19681 4.29022C6.1188 3.98816 5.93898 3.72004 5.68591 3.52846C5.43284 3.33689 5.12103 3.23283 4.80001 3.23282H1.92001Z" fill="#1D1D1D"/>
<path d="M20.64 24.8836C20.64 25.4393 20.4124 25.9722 20.0074 26.3652C19.6023 26.7581 19.0529 26.9789 18.48 26.9789C17.9071 26.9789 17.3577 26.7581 16.9527 26.3652C16.5476 25.9722 16.32 25.4393 16.32 24.8836C16.32 24.3279 16.5476 23.795 16.9527 23.4021C17.3577 23.0091 17.9071 22.7884 18.48 22.7884C19.0529 22.7884 19.6023 23.0091 20.0074 23.4021C20.4124 23.795 20.64 24.3279 20.64 24.8836Z" fill="#1D1D1D"/>
<path d="M6.96002 26.9789C7.53289 26.9789 8.08229 26.7581 8.48737 26.3652C8.89245 25.9722 9.12002 25.4393 9.12002 24.8836C9.12002 24.3279 8.89245 23.795 8.48737 23.4021C8.08229 23.0091 7.53289 22.7884 6.96002 22.7884C6.38715 22.7884 5.83775 23.0091 5.43267 23.4021C5.02759 23.795 4.80002 24.3279 4.80002 24.8836C4.80002 25.4393 5.02759 25.9722 5.43267 26.3652C5.83775 26.7581 6.38715 26.9789 6.96002 26.9789Z" fill="#1D1D1D"/>
<rect x="16" width="12" height="12" rx="6" fill="#FFCB45"/>
<path d="M19.8699 9V8.28409L22.0847 5.98935C22.3212 5.74006 22.5162 5.52166 22.6696 5.33416C22.8251 5.14453 22.9412 4.96449 23.0179 4.79403C23.0946 4.62358 23.133 4.44247 23.133 4.25071C23.133 4.03338 23.0819 3.84588 22.9796 3.68821C22.8773 3.52841 22.7377 3.40589 22.5609 3.32067C22.3841 3.23331 22.1848 3.18963 21.9632 3.18963C21.7289 3.18963 21.5243 3.23757 21.3496 3.33345C21.1749 3.42933 21.0407 3.56463 20.9469 3.73935C20.8532 3.91406 20.8063 4.11861 20.8063 4.35298H19.8635C19.8635 3.95455 19.9551 3.60618 20.1383 3.30788C20.3216 3.00959 20.573 2.77841 20.8926 2.61435C21.2122 2.44815 21.5755 2.36506 21.9824 2.36506C22.3936 2.36506 22.7559 2.44709 23.0691 2.61115C23.3844 2.77308 23.6305 2.99467 23.8074 3.27592C23.9842 3.55504 24.0726 3.87038 24.0726 4.22195C24.0726 4.46484 24.0268 4.70241 23.9352 4.93466C23.8457 5.1669 23.6891 5.42578 23.4654 5.71129C23.2417 5.99467 22.9306 6.33878 22.5321 6.74361L21.2314 8.10511V8.15305H24.1781V9H19.8699Z" fill="#1D1D1D"/>
</svg>
